<svg width="24" height="24" viewBox="0 0 24 24" fill="none" xmlns="http://www.w3.org/2000/svg">
<path d="M4.91992 20.28L6.68993 21.65C6.91993 21.88 7.42992 21.99 7.77992 21.99H9.94992C10.6399 21.99 11.3799 21.48 11.5499 20.79L12.9199 16.62C13.2099 15.82 12.6899 15.13 11.8299 15.13H9.53993C9.19993 15.13 8.90993 14.8399 8.96993 14.4399L9.25993 12.61C9.36993 12.1 9.02992 11.52 8.51992 11.35C8.05992 11.18 7.48993 11.41 7.25993 11.75L4.91992 15.24" stroke="black" stroke-width="1.5" stroke-miterlimit="10"/>
<path d="M2 20.28V14.6801C2 13.8801 2.34 13.59 3.14 13.59H3.71C4.51 13.59 4.85 13.8801 4.85 14.6801V20.28C4.85 21.08 4.51 21.37 3.71 21.37H3.14C2.34 21.37 2 21.09 2 20.28Z" stroke="black" stroke-width="1.5" stroke-linecap="round" stroke-linejoin="round"/>
<path d="M19.0798 3.71997L17.3098 2.34998C17.0798 2.11998 16.5698 2.01001 16.2198 2.01001H14.0498C13.3598 2.01001 12.6198 2.51996 12.4498 3.20996L11.0798 7.38C10.7898 8.18 11.3098 8.87 12.1698 8.87H14.4598C14.7998 8.87 15.0898 9.16006 15.0298 9.56006L14.7398 11.39C14.6298 11.9 14.9698 12.48 15.4798 12.65C15.9398 12.82 16.5098 12.59 16.7398 12.25L19.0798 8.76001" stroke="black" stroke-width="1.5" stroke-miterlimit="10"/>
<path d="M22.0004 3.71985V9.31983C22.0004 10.1198 21.6604 10.4099 20.8604 10.4099H20.2904C19.4904 10.4099 19.1504 10.1198 19.1504 9.31983V3.71985C19.1504 2.91985 19.4904 2.62988 20.2904 2.62988H20.8604C21.6604 2.62988 22.0004 2.90985 22.0004 3.71985Z" stroke="black" stroke-width="1.5" stroke-linecap="round" stroke-linejoin="round"/>
</svg>
