<svg width="24" height="24" viewBox="0 0 24 24" fill="none" xmlns="http://www.w3.org/2000/svg">
<path d="M18.4699 16.83L18.8599 19.99C18.9599 20.82 18.0699 21.4 17.3599 20.97L13.1699 18.48C12.7099 18.48 12.2599 18.45 11.8199 18.39C12.5599 17.52 12.9999 16.42 12.9999 15.23C12.9999 12.39 10.5399 10.09 7.49984 10.09C6.33984 10.09 5.26984 10.42 4.37984 11C4.34984 10.75 4.33984 10.5 4.33984 10.24C4.33984 5.68999 8.28984 2 13.1699 2C18.0499 2 21.9999 5.68999 21.9999 10.24C21.9999 12.94 20.6099 15.33 18.4699 16.83Z" stroke="black" stroke-width="1.5" stroke-linecap="round" stroke-linejoin="round"/>
<path d="M13 15.23C13 16.42 12.56 17.5201 11.82 18.3901C10.83 19.5901 9.26 20.36 7.5 20.36L4.89 21.91C4.45 22.18 3.89 21.81 3.95 21.3L4.2 19.3301C2.86 18.4001 2 16.91 2 15.23C2 13.47 2.94 11.9201 4.38 11.0001C5.27 10.4201 6.34 10.0901 7.5 10.0901C10.54 10.0901 13 12.39 13 15.23Z" stroke="black" stroke-width="1.5" stroke-linecap="round" stroke-linejoin="round"/>
</svg>
