<svg width="18" height="18" viewBox="0 0 18 18" fill="none" xmlns="http://www.w3.org/2000/svg">
<path d="M9.01509 2.18243C6.53257 2.18243 4.51507 4.19993 4.51507 6.68243V8.84993C4.51507 9.30743 4.32007 10.0049 4.08757 10.3949L3.22507 11.8274C2.69257 12.7124 3.06007 13.6949 4.03507 14.0249C7.26757 15.1049 10.7551 15.1049 13.9876 14.0249C14.8951 13.7249 15.2926 12.6524 14.7976 11.8274L13.9351 10.3949C13.7101 10.0049 13.5151 9.30743 13.5151 8.84993V6.68243C13.5151 4.20743 11.4901 2.18243 9.01509 2.18243Z" stroke="#808ABF" stroke-width="1.2" stroke-miterlimit="10" stroke-linecap="round"/>
<path d="M10.4024 2.39996C10.1699 2.33246 9.92994 2.27996 9.68244 2.24996C8.96244 2.15996 8.27244 2.21246 7.62744 2.39996C7.84494 1.84496 8.38494 1.45496 9.01494 1.45496C9.64494 1.45496 10.1849 1.84496 10.4024 2.39996Z" stroke="#808ABF" stroke-width="1.2" stroke-miterlimit="10" stroke-linecap="round" stroke-linejoin="round"/>
<path d="M11.265 14.2951C11.265 15.5326 10.2525 16.5451 9.015 16.5451C8.4 16.5451 7.83 16.2901 7.42501 15.8851C7.02001 15.4801 6.76501 14.9101 6.76501 14.2951" stroke="#808ABF" stroke-width="1.2" stroke-miterlimit="10"/>
</svg>
