<svg width="19" height="18" viewBox="0 0 19 18" fill="none" xmlns="http://www.w3.org/2000/svg">
<path d="M9.5 11.25C10.7427 11.25 11.75 10.2427 11.75 9C11.75 7.75732 10.7427 6.75 9.5 6.75C8.25732 6.75 7.25 7.75732 7.25 9C7.25 10.2427 8.25732 11.25 9.5 11.25Z" stroke="#808ABF" stroke-width="1.2" stroke-miterlimit="10" stroke-linecap="round" stroke-linejoin="round"/>
<path d="M2 9.65992V8.33992C2 7.55992 2.6375 6.91495 3.425 6.91495C4.7825 6.91495 5.3375 5.95495 4.655 4.77745C4.265 4.10245 4.4975 3.22495 5.18 2.83495L6.4775 2.09245C7.07 1.73995 7.835 1.94995 8.1875 2.54245L8.27 2.68495C8.945 3.86245 10.055 3.86245 10.7375 2.68495L10.82 2.54245C11.1725 1.94995 11.9375 1.73995 12.53 2.09245L13.8275 2.83495C14.51 3.22495 14.7425 4.10245 14.3525 4.77745C13.67 5.95495 14.225 6.91495 15.5825 6.91495C16.3625 6.91495 17.0075 7.55242 17.0075 8.33992V9.65992C17.0075 10.4399 16.37 11.0849 15.5825 11.0849C14.225 11.0849 13.67 12.0449 14.3525 13.2224C14.7425 13.9049 14.51 14.7749 13.8275 15.1649L12.53 15.9074C11.9375 16.2599 11.1725 16.0499 10.82 15.4574L10.7375 15.3149C10.0625 14.1374 8.9525 14.1374 8.27 15.3149L8.1875 15.4574C7.835 16.0499 7.07 16.2599 6.4775 15.9074L5.18 15.1649C4.4975 14.7749 4.265 13.8974 4.655 13.2224C5.3375 12.0449 4.7825 11.0849 3.425 11.0849C2.6375 11.0849 2 10.4399 2 9.65992Z" stroke="#808ABF" stroke-width="1.2" stroke-miterlimit="10" stroke-linecap="round" stroke-linejoin="round"/>
</svg>
